<svg xmlns="http://www.w3.org/2000/svg" width="1600" height="900" viewBox="0 0 1600 900">
  <defs>
    <linearGradient id="sky" x1="0" y1="0" x2="0" y2="1">
      <stop offset="0%" stop-color="#BFE7FF"/>
      <stop offset="55%" stop-color="#FFF6D6"/>
      <stop offset="100%" stop-color="#FFE0EC"/>
    </linearGradient>

    <filter id="soft" x="-20%" y="-20%" width="140%" height="140%">
      <feGaussianBlur stdDeviation="12" />
    </filter>

    <filter id="grain">
      <feTurbulence type="fractalNoise" baseFrequency="0.8" numOctaves="3" stitchTiles="stitch" />
      <feColorMatrix type="matrix"
        values="1 0 0 0 0
                0 1 0 0 0
                0 0 1 0 0
                0 0 0 .06 0"/>
    </filter>
  </defs>

  <rect width="1600" height="900" fill="url(#sky)"/>

  <!-- soft clouds -->
  <g filter="url(#soft)" opacity="0.85" fill="#ffffff">
    <ellipse cx="260" cy="210" rx="210" ry="80"/>
    <ellipse cx="430" cy="220" rx="190" ry="70"/>
    <ellipse cx="360" cy="170" rx="180" ry="65"/>

    <ellipse cx="1050" cy="180" rx="260" ry="85"/>
    <ellipse cx="1230" cy="200" rx="220" ry="75"/>
    <ellipse cx="1140" cy="140" rx="200" ry="70"/>

    <ellipse cx="760" cy="430" rx="300" ry="95"/>
    <ellipse cx="980" cy="460" rx="260" ry="85"/>
    <ellipse cx="860" cy="390" rx="220" ry="75"/>
  </g>

  <!-- tiny sparkles -->
  <g opacity="0.55" fill="#ffffff">
    <circle cx="240" cy="520" r="2.2"/>
    <circle cx="280" cy="560" r="1.7"/>
    <circle cx="510" cy="590" r="2.0"/>
    <circle cx="1160" cy="540" r="2.1"/>
    <circle cx="1280" cy="600" r="1.6"/>
    <circle cx="980" cy="620" r="2.4"/>
  </g>

  <!-- subtle grain -->
  <rect width="1600" height="900" filter="url(#grain)"/>
</svg>